<svg width="900" height="700" viewBox="0 0 900 700" xmlns="http://www.w3.org/2000/svg">
  <rect width="900" height="700" rx="36" fill="#e9f4f1"/>
  <circle cx="690" cy="145" r="74" fill="#f2cf7d"/>
  <path d="M0 470 C170 390 290 510 460 430 C625 355 770 465 900 385 V700 H0Z" fill="#7cb7aa"/>
  <path d="M0 540 C220 455 355 585 570 500 C720 440 820 500 900 470 V700 H0Z" fill="#276f6b"/>
  <rect x="260" y="325" width="330" height="185" rx="8" fill="#fff"/>
  <path d="M225 330 L425 190 L625 330 Z" fill="#0d5555"/>
  <rect x="390" y="410" width="70" height="100" fill="#d8a64b"/>
  <rect x="315" y="375" width="45" height="55" fill="#83c4ba"/>
  <rect x="490" y="375" width="45" height="55" fill="#83c4ba"/>
</svg>
